
<svg width="139px" height="32px" viewBox="0 0 139 32" version="1.1" xmlns="http://www.w3.org/2000/svg" xmlns:xlink="http://www.w3.org/1999/xlink">
    <!-- Generator: Sketch 48.2 (47327) - http://www.bohemiancoding.com/sketch -->
    <desc>Created with Sketch.</desc>
    <defs></defs>
    <g id="Page-1" stroke="none" stroke-width="1" fill="none" fill-rule="evenodd">
        <g id="Tech-Used-Page" transform="translate(-388.000000, -10.000000)" fill-rule="nonzero">
            <g id="Introduction" transform="translate(295.000000, 10.000000)">
                <g id="Job-Position">
                    <g id="Meteor-SVG" transform="translate(93.000000, 0.000000)">
                        <g id="Group" transform="translate(83.000000, 0.000000)" fill="#DF4F4F">
                            <path d="M0.202929134,0.055483871 L28.9251654,29.3824516 C28.9251654,29.3824516 29.903937,30.0477419 30.651937,29.2714839 C31.4004724,28.4954839 30.8248819,27.7194839 30.8248819,27.7194839 L0.202929134,0.055483871 Z M9.29725984,2.82735484 L31.1702362,25.5571613 C31.1702362,25.5571613 32.1487402,26.2224516 32.8970079,25.4461935 C33.6452756,24.6701935 33.069685,23.8941935 33.069685,23.8941935 L9.29725984,2.82735484 Z M2.90820472,8.75922581 L24.7809134,31.4892903 C24.7809134,31.4892903 25.7594173,32.1545806 26.507685,31.3783226 C27.2559528,30.6020645 26.6803622,29.8260645 26.6803622,29.8260645 L2.90820472,8.75922581 Z M16.9855433,5.21135484 L32.2668031,21.0913548 C32.2668031,21.0913548 32.9502835,21.555871 33.4731339,21.0139355 C33.9959843,20.4714839 33.5936063,19.9292903 33.5936063,19.9292903 L16.9855433,5.21135484 Z M5.01299213,15.6335484 L20.294252,31.5138065 C20.294252,31.5138065 20.978,31.9783226 21.5005827,31.4363871 C22.0234331,30.8939355 21.6213228,30.3517419 21.6213228,30.3517419 L5.01299213,15.6338065 L5.01299213,15.6335484 Z M24.8387402,8.64851613 L31.7645669,15.8676129 C31.7645669,15.8676129 32.1026929,16.0854194 32.3613071,15.8314839 C32.6199213,15.5772903 32.4210079,15.3230968 32.4210079,15.3230968 L24.8384724,8.64851613 L24.8387402,8.64851613 Z M8.8367874,22.9517419 L15.7626142,30.1708387 C15.7626142,30.1708387 16.1010079,30.3886452 16.359622,30.1347097 C16.6182362,29.8805161 16.4193228,29.6263226 16.4193228,29.6263226 L8.8367874,22.9517419 Z" id="Shape"></path>
                        </g>
                        <g id="Group" transform="translate(0.000000, 12.000000)" fill="#4A4A4A">
                            <path d="M121.128455,0.0605263158 L132.380939,0.0610526316 C132.380939,0.0610526316 138.444,0.290526316 138.444,6.75789474 C138.444,11.3389474 134.035637,13.0278947 134.035637,13.0278947 L139,19.9113158 L133.704697,19.9113158 L129.236879,13.5081579 L125.761879,13.5081579 L125.761879,19.9113158 L121.128455,19.9113158 L121.128455,0.0605263158 Z M125.761879,3.90315789 L125.761879,9.66631579 L131.719061,9.66631579 C131.719061,9.66631579 133.996,9.66578947 133.996,6.78421053 C133.996,3.79342105 131.222516,3.90315789 131.222516,3.90315789 L125.761879,3.90315789 Z M69.8309395,0.0610526316 L69.8309395,19.9113158 L85.3856367,19.9113158 L85.3856367,16.0692105 L74.4643633,16.0692105 L74.4643633,11.9076316 L83.8965449,11.9076316 L83.8965449,8.06552632 L74.4643633,8.06552632 L74.4643633,3.9 L85.3856367,3.9 L85.3856367,0.0610526316 L69.8312109,0.0610526316 L69.8309395,0.0610526316 Z M47.3262422,0.0610526316 L47.3262422,3.90315789 L53.4487578,3.90315789 L53.4487578,19.9113158 L58.0821816,19.9113158 L58.0821816,3.90315789 L64.2046973,3.90315789 L64.2046973,0.0610526316 L47.3262422,0.0610526316 Z M26.1453027,0.0610526316 L26.1453027,19.9113158 L41.7,19.9113158 L41.7,16.0692105 L30.7784551,16.0692105 L30.7784551,11.9076316 L40.2106367,11.9076316 L40.2106367,8.06552632 L30.7784551,8.06552632 L30.7784551,3.9 L41.7,3.9 L41.7,0.0610526316 L26.1453027,0.0610526316 Z M0,0.0605263158 L0,19.9118421 L4.63016602,19.9115789 L4.63016602,7.42447368 L10.2564082,15.4286842 L15.8856367,7.42447368 L15.8856367,19.9118421 L20.5190605,19.9118421 L20.5190605,0.0605263158 L15.8856367,0.0605263158 L10.2566797,8.22473684 L4.63016602,0.0605263158 L0,0.0605263158 Z" id="Shape"></path>
                        </g>
                    </g>
                </g>
            </g>
        </g>
    </g>
</svg>