
<svg width="26px" height="25px" viewBox="0 0 26 25" version="1.1" xmlns="http://www.w3.org/2000/svg" xmlns:xlink="http://www.w3.org/1999/xlink">
  <path d="M13.1806269,0 C6.10142314,0 0.36232212,5.7377914 0.36232212,12.81761 C0.36232212,18.4793373 4.03491948,23.283082 9.12933972,24.9777703 C9.77028167,25.095856 10.0047596,24.7001095 10.0047596,24.3607463 C10.0047596,24.0559577 9.99354311,23.2501031 9.98659957,22.1809494 C6.42082587,22.9554209 5.6682532,20.4628567 5.6682532,20.4628567 C5.08606427,18.9819991 4.2458962,18.5878484 4.2458962,18.5878484 C3.08151833,17.7926321 4.33402572,17.8085896 4.33402572,17.8085896 C5.61964844,17.8990155 6.29637631,19.1293401 6.29637631,19.1293401 C7.44099181,21.0883914 9.29705286,20.5229633 10.0277267,20.1942385 C10.1436303,19.3660433 10.4753178,18.8011472 10.841723,18.480933 C7.99487247,18.1569954 5.00274182,17.0580544 5.00274182,12.1468624 C5.00274182,10.74792 5.5016083,9.60376599 6.32201399,8.70748542 C6.19008677,8.3830159 5.75050742,7.08035054 6.44753179,5.3154491 C6.44753179,5.3154491 7.52378014,4.97129864 9.9727125,6.62928471 C10.995549,6.3452409 12.0915598,6.203219 13.1816952,6.19789982 C14.2707624,6.203219 15.3673072,6.3452409 16.3917461,6.62928471 C18.8380079,4.97129864 19.9126539,5.3154491 19.9126539,5.3154491 C20.6123488,7.08035054 20.1722353,8.3830159 20.0403081,8.70748542 C20.8617821,9.60376599 21.3579779,10.7473881 21.3579779,12.1468624 C21.3579779,17.0702885 18.3610402,18.1538039 15.5056439,18.4713585 C15.9649856,18.8671049 16.3757225,19.6484914 16.3757225,20.8447733 C16.3757225,22.5575468 16.359699,23.9399998 16.359699,24.3607463 C16.359699,24.703301 16.5904381,25.102239 17.2409942,24.9761746 C22.3306074,23.2782947 26,18.4777415 26,12.81761 C26,5.7377914 20.2603649,0 13.1806269,0" id="Github" fill="#5661B3"></path>
</svg>